# xmcd CD database file
#
# Track frame offsets:
#       150
#       8693
#       23975
#       37847
#       56814
#       69214
#       85772
#
# Disc length: 1562 seconds
#
# Revision: 0
# Processed by: cddbd v1.5.2PL0 Copyright (c) Steve Scherf et al.
# Submitted via: jack 3.1.1
#
DISCID=48061807
DTITLE=Ilkka Kalevi Tillanen - Mitä järkeä edes yrittää?
DYEAR=2007
DGENRE=Rap
TTITLE0=Tervetuloa vaaran vyöhykkeelle
TTITLE1=Omistajan elkeet
TTITLE2=Tällai miä siut viettelen
TTITLE3=Voispa KB:ssa asua
TTITLE4=Siut miä haluaisin vaikka asuisit v***u kuussa
TTITLE5=Nilkki, siä pääsit miun listalle!
TTITLE6=Ilkka ja yksisarvinen (feat. Yksisarvinen/Unicorn Glade 972 Posse)
EXTD=
EXTT0=
EXTT1=
EXTT2=
EXTT3=
EXTT4=
EXTT5=
EXTT6=
PLAYORDER=
